{"title":"Doomsday 2008 Unrated BDRip 720p x264 Dual Audio 5.1Ch.[Hindi-En","uid":10399216,"size":1059598725,"categoryP":"video","categoryS":"hd___movies","magnet":"?xt=urn:btih:2245b796577feabc54d302e50144a014cd8fc3cd&amp;dn=Doomsday+2008+Unrated+BDRip+720p+x264+Dual+Audio+5.1Ch.%5BHindi-En&amp;tr=udp%3A%2F%2Ftracker.openbittorrent.com%3A80&amp;tr=udp%3A%2F%2Fopen.demonii.com%3A1337&amp;tr=udp%3A%2F%2Ftracker.coppersurfer.tk%3A6969&amp;tr=udp%3A%2F%2Fexodus.desync.com%3A6969","seeders":1,"leechers":0,"uploader":"Dj_YsB","files":8,"time":1403328428,"description":"Doomsday 2008 Unrated BDRip 720p x264 Dual Audio 5.1Ch.[Hindi-Eng] YsB TeaM SSX\n\n &lt;a href=&quot;\nhttp://i.imgur.com/BIj8fYB.jpg&quot; rel=&quot;nofollow&quot; target=&quot;_NEW&quot;&gt;\nhttp://i.imgur.com/BIj8fYB.jpg&lt;/a&gt;\n\n\nInfo:\n\nGeneral\nComplete name                            : Doomsday 2008 Unrated BDRip 720p x264 Dual Audio 5.1Ch.[Hindi-Eng] YsB TeaM SSX.mkv\nFormat                                   : Matroska\nFormat version                           : Version 4 / Version 2\nFile size                                : 995.1 MiB\nDuration                                 : 1h 52mn\nOverall bit rate                         : 1233 Kbps\n\nVideo\nID                                       : 1\nFormat                                   : AVC\nDuration                                 : 1h 52mn\nNominal bit rate                         : 850 Kbps\nWidth                                    : 1 280 pixels\nHeight                                   : 544 pixels\nFrame rate                               : 23.976 fps\n\nAudio #1\nID                                       : 2\nFormat                                   : AC-3\nDuration                                 : 1h 52mn\nBit rate mode                            : Constant\nBit rate                                 : 192 Kbps\nChannel(s)                               : 6 channels\nChannel positions                        : Front: L C R, Side: L R, LFE\nStream size                              : 155 MiB(16%)\nTitle                                    : YsB TeaM SSX\nLanguage                                 : Hindi\n\nAudio #2\nID                                       : 2\nFormat                                   : AC-3\nDuration                                 : 1h 52mn\nBit rate mode                            : Constant\nBit rate                                 : 192 Kbps\nChannel(s)                               : 6 channels\nChannel positions                        : Front: L C R, Side: L R, LFE\nStream size                              : 155 MiB(16%)\nTitle                                    : YsB TeaM SSX\nLanguage                                 : English\n\n\nScreenShot: &lt;a href=&quot;\nhttp://i.imgur.com/p7nIIvI.jpg&quot; rel=&quot;nofollow&quot; target=&quot;_NEW&quot;&gt;\nhttp://i.imgur.com/p7nIIvI.jpg&lt;/a&gt; &lt;a href=&quot;\nhttp://i.imgur.com/XEBWXWh.jpg&quot; rel=&quot;nofollow&quot; target=&quot;_NEW&quot;&gt;\nhttp://i.imgur.com/XEBWXWh.jpg&lt;/a&gt; &lt;a href=&quot;\nhttp://i.imgur.com/4HFFY38.jpg&quot; rel=&quot;nofollow&quot; target=&quot;_NEW&quot;&gt;\nhttp://i.imgur.com/4HFFY38.jpg&lt;/a&gt;\n\nThanks\nGPsoft, HDDR...\nTeaM SSX - Maverick Dude, Hari, Hemkumar, Sajan...","torrent":{"xt":"urn:btih:2245b796577feabc54d302e50144a014cd8fc3cd","amp;dn":"Doomsday+2008+Unrated+BDRip+720p+x264+Dual+Audio+5.1Ch.%5BHindi-En","amp;tr":["udp%3A%2F%2Ftracker.openbittorrent.com%3A80","udp%3A%2F%2Fopen.demonii.com%3A1337","udp%3A%2F%2Ftracker.coppersurfer.tk%3A6969","udp%3A%2F%2Fexodus.desync.com%3A6969"],"infoHash":"2245b796577feabc54d302e50144a014cd8fc3cd","infoHashBuffer":{"type":"Buffer","data":[34,69,183,150,87,127,234,188,84,211,2,229,1,68,160,20,205,143,195,205]},"announce":[],"urlList":[]}}